<svg xmlns="http://www.w3.org/2000/svg" xmlns:svg="http://www.w3.org/2000/svg" id="svg2" width="271.283" height="111.33" version="1.1"><defs id="defs4"><marker id="Arrow2Mend" orient="auto" refX="0" refY="0" style="overflow:visible"><path id="path3696" style="font-size:12px;fill-rule:evenodd;stroke-width:.625;stroke-linejoin:round" d="M 8.7185878,4.0337352 -2.2072895,0.01601326 8.7185884,-4.0017078 c -1.7454984,2.3720609 -1.7354408,5.6174519 -6e-7,8.035443 z" transform="scale(-0.6)"/></marker><marker id="Arrow2Lend" orient="auto" refX="0" refY="0" style="overflow:visible"><path id="path3690" style="font-size:12px;fill-rule:evenodd;stroke-width:.625;stroke-linejoin:round" d="M 8.7185878,4.0337352 -2.2072895,0.01601326 8.7185884,-4.0017078 c -1.7454984,2.3720609 -1.7354408,5.6174519 -6e-7,8.035443 z" transform="matrix(-1.1,0,0,-1.1,-1.1,0)"/></marker><marker id="Arrow2Mend-0" orient="auto" refX="0" refY="0" style="overflow:visible"><path id="path3696-9" style="font-size:12px;fill-rule:evenodd;stroke-width:.625;stroke-linejoin:round" d="M 8.7185878,4.0337352 -2.2072895,0.01601326 8.7185884,-4.0017078 c -1.7454984,2.3720609 -1.7354408,5.6174519 -6e-7,8.035443 z" transform="scale(-0.6)"/></marker></defs><metadata id="metadata7"/><g id="layer1" transform="translate(-209.30148,-534.31362)"><path style="fill:none;stroke:#000;stroke-width:1.21355975;stroke-linecap:butt;stroke-linejoin:miter;stroke-miterlimit:4;stroke-dasharray:1.21355975,2.4271195;stroke-dashoffset:0;stroke-opacity:1;marker-end:none" id="path3664" d="m 388,603.62582 -62,0.47272"/><path style="fill:none;stroke:#000;stroke-width:1px;stroke-linecap:butt;stroke-linejoin:miter;stroke-opacity:1" id="path2816" d="m 387,546.86218 79,-1 14,56 -91,43 z"/><path style="fill:none;stroke:#000;stroke-width:1px;stroke-linecap:butt;stroke-linejoin:miter;stroke-opacity:1" id="path2818" d="m 246.19848,535.12334 80.64122,69.26034 -116.72691,8.47526 z"/><rect style="fill:#0f0;fill-opacity:1;stroke-width:1.5;stroke-miterlimit:4;stroke-dasharray:none" id="rect2820" width="7" height="7" x="385.5" y="599.362"/><rect style="fill:#0f0;fill-opacity:1;stroke-width:1.5;stroke-miterlimit:4;stroke-dasharray:none" id="rect2820-1" width="7" height="7" x="323" y="599.862"/></g></svg>