<svg xmlns="http://www.w3.org/2000/svg" xmlns:svg="http://www.w3.org/2000/svg" id="svg2" width="174.87" height="149.37" version="1.1"><defs id="defs4"><marker id="Arrow2Mstart" orient="auto" refX="0" refY="0" style="overflow:visible"><path id="path3660" style="font-size:12px;fill-rule:evenodd;stroke-width:.625;stroke-linejoin:round" d="M 8.7185878,4.0337352 -2.2072895,0.01601326 8.7185884,-4.0017078 c -1.7454984,2.3720609 -1.7354408,5.6174519 -6e-7,8.035443 z" transform="scale(0.6)"/></marker><marker id="Arrow2Mend" orient="auto" refX="0" refY="0" style="overflow:visible"><path id="path3663" style="font-size:12px;fill-rule:evenodd;stroke-width:.625;stroke-linejoin:round" d="M 8.7185878,4.0337352 -2.2072895,0.01601326 8.7185884,-4.0017078 c -1.7454984,2.3720609 -1.7354408,5.6174519 -6e-7,8.035443 z" transform="scale(-0.6)"/></marker><marker id="Arrow1Mend" orient="auto" refX="0" refY="0" style="overflow:visible"><path id="path3645" d="M 0,0 5,-5 -12.5,0 5,5 Z" style="fill-rule:evenodd;stroke:#000;stroke-width:1.00000003pt;marker-start:none" transform="matrix(-0.4,0,0,-0.4,-4,0)"/></marker><marker id="Arrow2Lend" orient="auto" refX="0" refY="0" style="overflow:visible"><path id="path3657" style="font-size:12px;fill-rule:evenodd;stroke-width:.625;stroke-linejoin:round" d="M 8.7185878,4.0337352 -2.2072895,0.01601326 8.7185884,-4.0017078 c -1.7454984,2.3720609 -1.7354408,5.6174519 -6e-7,8.035443 z" transform="matrix(-1.1,0,0,-1.1,-1.1,0)"/></marker><marker id="Arrow1Lend" orient="auto" refX="0" refY="0" style="overflow:visible"><path id="path3639" d="M 0,0 5,-5 -12.5,0 5,5 Z" style="fill-rule:evenodd;stroke:#000;stroke-width:1.00000003pt;marker-start:none" transform="matrix(-0.8,0,0,-0.8,-10,0)"/></marker><marker id="Arrow2Lstart" orient="auto" refX="0" refY="0" style="overflow:visible"><path id="path3654" style="font-size:12px;fill-rule:evenodd;stroke-width:.625;stroke-linejoin:round" d="M 8.7185878,4.0337352 -2.2072895,0.01601326 8.7185884,-4.0017078 c -1.7454984,2.3720609 -1.7354408,5.6174519 -6e-7,8.035443 z" transform="matrix(1.1,0,0,1.1,1.1,0)"/></marker></defs><metadata id="metadata7"/><g id="layer1" transform="translate(-283.1327,-415.03117)"><path style="fill:#d7e3f4;fill-opacity:1;stroke:#000;stroke-width:1px;stroke-linecap:butt;stroke-linejoin:miter;stroke-opacity:1" id="path5829" d="m 289.5,466.36218 26,47.5 57.5,43.5 77.5,-70 -17,-61.5 -70.5,-4 z"/><path style="fill:none;stroke:#000;stroke-width:1;stroke-linecap:round;stroke-linejoin:round;stroke-miterlimit:4;stroke-dasharray:1,4;stroke-dashoffset:0;stroke-opacity:1" id="path3928" d="m 485.9707,540.69531 a 6.4361742,6.4361742 0 0 0 -3.05468,0.92383 l -73.5,44.5 a 6.4361742,6.4361742 0 0 0 -2.31055,8.5957 l 26,47.5 a 6.4361742,6.4361742 0 0 0 1.76172,2.04297 l 57.5,43.5 a 6.4361742,6.4361742 0 0 0 8.19726,-0.35742 l 77.5,-70 a 6.4361742,6.4361742 0 0 0 1.88867,-6.49023 l -17,-61.5 a 6.4361742,6.4361742 0 0 0 -5.83789,-4.71094 l -70.5,-4 a 6.4361742,6.4361742 0 0 0 -0.64453,-0.004 z" transform="translate(-122.68303,-125.1579)"/></g></svg>