<svg xmlns="http://www.w3.org/2000/svg" xmlns:svg="http://www.w3.org/2000/svg" id="svg5128" width="322.269" height="108.76" version="1.1"><metadata id="metadata5133"/><g id="layer1" transform="translate(-178.07143,-467.67348)"><rect style="fill:#d7e3f4;fill-opacity:1;stroke:#000;stroke-width:1;stroke-linecap:round;stroke-linejoin:round;stroke-miterlimit:4;stroke-dasharray:none;stroke-dashoffset:0;stroke-opacity:1" id="rect5140" width="56.569" height="42.426" x="314.034" y="471.861"/><path style="fill:none;stroke:#7d7d7d;stroke-width:1;stroke-linecap:round;stroke-linejoin:round;stroke-miterlimit:4;stroke-dasharray:1,3;stroke-dashoffset:0;stroke-opacity:1" id="path5700" d="M 329.9375,403.28516 A 3.214607,3.214607 0 0 0 326.72266,406.5 v 42.4375 a 3.214607,3.214607 0 0 0 3.21484,3.21484 H 386.5 a 3.214607,3.214607 0 0 0 3.21484,-3.21484 V 406.5 A 3.214607,3.214607 0 0 0 386.5,403.28516 Z" transform="translate(-15.980776,64.888322)"/><rect style="fill:#d7e3f4;fill-opacity:1;stroke:#000;stroke-width:1;stroke-linecap:round;stroke-linejoin:round;stroke-miterlimit:4;stroke-dasharray:none;stroke-dashoffset:0;stroke-opacity:1" id="rect5138" width="53.538" height="47.477" x="319.461" y="520.264"/><path style="fill:none;stroke:#7d7d7d;stroke-width:1;stroke-linecap:round;stroke-linejoin:round;stroke-miterlimit:4;stroke-dasharray:1,3;stroke-dashoffset:0;stroke-opacity:1" id="path5720" d="m 319.75,422.92578 a 3.2930238,3.2930238 0 0 0 -3.29297,3.29297 v 47.46875 a 3.2930238,3.2930238 0 0 0 3.29297,3.29297 h 53.53125 a 3.2930238,3.2930238 0 0 0 3.29297,-3.29297 v -47.46875 a 3.2930238,3.2930238 0 0 0 -3.29297,-3.29297 z" transform="translate(-0.59098611,95.046407)"/><path style="fill:none;stroke:#000;stroke-width:1px;stroke-linecap:butt;stroke-linejoin:miter;stroke-opacity:1" id="path5136" d="M 181.82746,572.53972 H 494.97475"/><rect style="fill:none;stroke:#7d7d7d;stroke-width:1;stroke-linecap:round;stroke-linejoin:round;stroke-miterlimit:4;stroke-dasharray:1,3;stroke-dashoffset:0;stroke-opacity:1" id="rect5750" width="321.269" height="6.071" x="178.571" y="569.862" ry="3.036"/><text xml:space="preserve" style="font-style:normal;font-variant:normal;font-weight:400;font-stretch:normal;line-height:0%;font-family:Calibri;-inkscape-font-specification:Calibri;text-align:start;letter-spacing:0;word-spacing:0;writing-mode:lr-tb;text-anchor:start;fill:#000;fill-opacity:1;stroke:none" id="text5770" x="393.959" y="501.071"><tspan id="tspan5772" x="393.959" y="501.071" style="font-size:14px;line-height:1.25">Polygons collide</tspan><tspan id="tspan5774" x="393.959" y="518.571" style="font-size:14px;line-height:1.25">with their skin</tspan></text></g></svg>