<svg xmlns="http://www.w3.org/2000/svg" xmlns:svg="http://www.w3.org/2000/svg" id="svg5128" width="69.632" height="119.937" version="1.1"><defs id="defs5130"><marker id="Arrow2Lend" orient="auto" refX="0" refY="0" style="overflow:visible"><path id="path3807" style="font-size:12px;fill-rule:evenodd;stroke-width:.625;stroke-linejoin:round" d="M 8.7185878,4.0337352 -2.2072895,0.01601326 8.7185884,-4.0017078 c -1.7454984,2.3720609 -1.7354408,5.6174519 -6e-7,8.035443 z" transform="matrix(-1.1,0,0,-1.1,-1.1,0)"/></marker><marker id="Arrow1Lend" orient="auto" refX="0" refY="0" style="overflow:visible"><path id="path3789" d="M 0,0 5,-5 -12.5,0 5,5 Z" style="fill-rule:evenodd;stroke:#000;stroke-width:1.00000003pt;marker-start:none" transform="matrix(-0.8,0,0,-0.8,-10,0)"/></marker><marker id="Arrow2Lstart" orient="auto" refX="0" refY="0" style="overflow:visible"><path id="path3804" style="font-size:12px;fill-rule:evenodd;stroke-width:.625;stroke-linejoin:round" d="M 8.7185878,4.0337352 -2.2072895,0.01601326 8.7185884,-4.0017078 c -1.7454984,2.3720609 -1.7354408,5.6174519 -6e-7,8.035443 z" transform="matrix(1.1,0,0,1.1,1.1,0)"/></marker><marker id="Arrow1Mstart" orient="auto" refX="0" refY="0" style="overflow:visible"><path id="path3792" d="M 0,0 5,-5 -12.5,0 5,5 Z" style="fill-rule:evenodd;stroke:#000;stroke-width:1.00000003pt;marker-start:none" transform="matrix(0.4,0,0,0.4,4,0)"/></marker><marker id="Arrow1Lstart" orient="auto" refX="0" refY="0" style="overflow:visible"><path id="path3786" d="M 0,0 5,-5 -12.5,0 5,5 Z" style="fill-rule:evenodd;stroke:#000;stroke-width:1.00000003pt;marker-start:none" transform="matrix(0.8,0,0,0.8,10,0)"/></marker></defs><metadata id="metadata5133"/><g id="layer1" transform="translate(-313.07066,-471.3606)"><rect style="fill:#d7e3f4;fill-opacity:1;stroke:#767676;stroke-width:1;stroke-linecap:round;stroke-linejoin:round;stroke-miterlimit:4;stroke-dasharray:none;stroke-dashoffset:0;stroke-opacity:1" id="rect5140" width="56.569" height="42.426" x="314.034" y="471.861"/><circle style="fill:#d7e3f4;fill-opacity:1;stroke:#767676;stroke-width:1;stroke-linecap:round;stroke-linejoin:round;stroke-miterlimit:4;stroke-dasharray:none;stroke-dashoffset:0;stroke-opacity:1" id="path2997" cx="351.25" cy="560.755" r="16.964" transform="translate(-8.5714286,-2.8571429)"/><path style="fill:none;stroke:#000;stroke-width:1px;stroke-linecap:butt;stroke-linejoin:miter;stroke-opacity:1" id="path3767" d="m 341.78571,492.36218 1.42858,98.92857"/><circle id="path3779" cx="208.571" cy="490.934" transform="translate(134.22402,67.175144)" style="fill:#000;fill-opacity:1;fill-rule:nonzero;stroke:none" r="2.143"/><path style="fill:none;stroke:#000;stroke-width:1px;stroke-linecap:butt;stroke-linejoin:miter;stroke-opacity:1;marker-start:url(#Arrow2Lstart);marker-mid:none;marker-end:url(#Arrow2Lend)" id="path3781" d="m 377.85714,506.46933 0.53571,45"/><path style="fill:none;stroke:#767676;stroke-opacity:1;marker-start:url(#Arrow2Lstart);marker-end:url(#Arrow2Lend)" id="path5547" d="M 308.31133,578.19168 A 23.392857,23.392857 0 0 1 290.45762,559.00025 23.392857,23.392857 0 0 1 301.62433,535.2859" transform="translate(23.392857,2.5)"/></g></svg>